ply
format ascii 1.0
element vertex 121
property float x
property float y
property float z
end_header
73.0 429.0 0
74.0 429.0 0
145.0 527.0 0
146.0 526.0 0
146.0 530.0 0
162.0 532.0 0
168.0 415.0 0
193.0 630.0 0
196.0 341.0 0
206.0 551.0 0
235.0 486.0 0
237.0 357.0 0
240.0 561.0 0
247.0 549.0 0
247.0 550.0 0
250.0 457.0 0
250.0 640.0 0
250.0 641.0 0
251.0 457.0 0
262.0 420.0 0
272.0 190.0 0
272.0 191.0 0
273.0 192.0 0
277.0 192.0 0
278.0 192.0 0
280.0 479.0 0
281.0 480.0 0
282.0 480.0 0
283.0 630.0 0
300.0 488.0 0
301.0 276.0 0
302.0 488.0 0
303.0 488.0 0
307.0 326.0 0
308.0 325.0 0
310.0 260.0 0
314.0 206.0 0
326.0 145.0 0
326.0 146.0 0
336.0 138.0 0
336.0 409.0 0
336.0 410.0 0
355.0 742.0 0
358.0 335.0 0
361.0 566.0 0
362.0 617.0 0
363.0 612.0 0
364.0 769.0 0
364.0 774.0 0
365.0 772.0 0
365.0 774.0 0
366.0 161.0 0
368.0 172.0 0
369.0 286.0 0
370.0 571.0 0
371.0 468.0 0
371.0 469.0 0
377.0 482.0 0
383.0 301.0 0
384.0 299.0 0
384.0 301.0 0
387.0 744.0 0
389.0 554.0 0
390.0 100.0 0
391.0 302.0 0
391.0 663.0 0
391.0 714.0 0
392.0 301.0 0
395.0 104.0 0
400.0 105.0 0
406.0 302.0 0
407.0 504.0 0
408.0 309.0 0
408.0 542.0 0
410.0 540.0 0
411.0 317.0 0
433.0 56.0 0
434.0 27.0 0
444.0 189.0 0
453.0 162.0 0
460.0 356.0 0
465.0 45.0 0
474.0 655.0 0
475.0 90.0 0
478.0 465.0 0
485.0 593.0 0
486.0 579.0 0
488.0 163.0 0
490.0 406.0 0
490.0 407.0 0
492.0 404.0 0
495.0 351.0 0
497.0 116.0 0
497.0 117.0 0
498.0 235.0 0
504.0 64.0 0
507.0 635.0 0
513.0 199.0 0
516.0 169.0 0
520.0 557.0 0
526.0 636.0 0
527.0 608.0 0
527.0 615.0 0
540.0 276.0 0
548.0 248.0 0
550.0 343.0 0
555.0 379.0 0
587.0 331.0 0
594.0 242.0 0
596.0 464.0 0
603.0 150.0 0
603.0 458.0 0
606.0 320.0 0
638.0 268.0 0
641.0 393.0 0
654.0 270.0 0
656.0 369.0 0
657.0 369.0 0
698.0 401.0 0
727.0 371.0 0
752.0 382.0 0
